<?xml version="1.0" encoding="iso-8859-1"?>
<!-- Uploaded to: SVG Repo, www.svgrepo.com, Generator: SVG Repo Mixer Tools -->
<svg version="1.1" id="Layer_1" xmlns="http://www.w3.org/2000/svg" xmlns:xlink="http://www.w3.org/1999/xlink" 
	 viewBox="0 0 512 512" xml:space="preserve">
<polygon style="fill:#524E4D;" points="26.988,512 26.988,434.892 256,404.048 485.012,434.892 485.012,512 "/>
<polygon style="fill:#7A7674;" points="26.988,434.892 26.988,357.783 256,326.94 485.012,357.783 485.012,434.892 "/>
<polygon style="fill:#CCC4C1;" points="26.988,357.783 26.988,280.675 256,249.831 485.012,280.675 485.012,357.783 "/>
<rect x="26.988" style="fill:#EBEDEC;" width="458.024" height="280.675"/>
<g>
	<path style="fill:#7A7674;" d="M407.904,124.916H277.04c-8.516,0-15.422-6.904-15.422-15.422s6.906-15.422,15.422-15.422h130.864
		c8.516,0,15.422,6.904,15.422,15.422S416.419,124.916,407.904,124.916z"/>
	<path style="fill:#7A7674;" d="M407.904,186.602H277.04c-8.516,0-15.422-6.904-15.422-15.422c0-8.517,6.906-15.422,15.422-15.422
		h130.864c8.516,0,15.422,6.904,15.422,15.422C423.325,179.698,416.419,186.602,407.904,186.602z"/>
</g>
<circle style="fill:#EE3840;" cx="153.446" cy="109.494" r="30.843"/>
<path style="fill:#4C5870;" d="M202.795,202.024h-98.699c-8.516,0-15.422-6.904-15.422-15.422s6.906-15.422,15.422-15.422h98.699
	c8.516,0,15.422,6.904,15.422,15.422S211.311,202.024,202.795,202.024z"/>
</svg>