<?xml version="1.0" encoding="iso-8859-1"?>
<!-- Uploaded to: SVG Repo, www.svgrepo.com, Generator: SVG Repo Mixer Tools -->
<svg height="80px" width="80px" version="1.1" id="Layer_1" xmlns="http://www.w3.org/2000/svg" xmlns:xlink="http://www.w3.org/1999/xlink" 
	 viewBox="0 0 512 512" xml:space="preserve">
<path style="fill:#ECEDEF;" d="M0,152.939v333.942c0,4.428,3.589,8.017,8.017,8.017h495.967c4.427,0,8.017-3.588,8.017-8.017
	V152.939H0z"/>
<path style="fill:#D9DCDF;" d="M17.637,486.881V152.939H0v333.942c0,4.428,3.589,8.017,8.017,8.017h17.637
	C21.226,494.898,17.637,491.309,17.637,486.881z"/>
<path style="fill:#FF8C78;" d="M469.779,94.063H42.221C18.903,94.063,0,112.966,0,136.284v42.221h512v-42.221
	C512,112.966,493.097,94.063,469.779,94.063z"/>
<path style="fill:#DF7A6E;" d="M59.858,94.063H42.221C18.903,94.063,0,112.966,0,136.284v42.221h17.637v-42.221
	C17.637,112.966,36.54,94.063,59.858,94.063z"/>
<g>
	<path style="fill:#B3B9BF;" d="M127.733,317.996c34.185,0,61.996-27.812,61.996-61.996s-27.81-61.996-61.996-61.996
		S65.737,221.816,65.737,256S93.547,317.996,127.733,317.996z"/>
	<path style="fill:#B3B9BF;" d="M170.489,316.392H84.977c-23.28,0-42.221,18.941-42.221,42.221v94.063
		c0,4.428,3.589,8.017,8.017,8.017h153.921c4.427,0,8.017-3.588,8.017-8.017v-94.063
		C212.71,335.333,193.769,316.392,170.489,316.392z"/>
	<path style="fill:#B3B9BF;" d="M461.228,306.772h-85.511c-4.427,0-8.017-3.588-8.017-8.017s3.589-8.017,8.017-8.017h85.511
		c4.427,0,8.017,3.588,8.017,8.017S465.655,306.772,461.228,306.772z"/>
	<path style="fill:#B3B9BF;" d="M461.228,375.182H256c-4.427,0-8.017-3.588-8.017-8.017c0-4.428,3.589-8.017,8.017-8.017h205.228
		c4.427,0,8.017,3.588,8.017,8.017C469.244,371.593,465.655,375.182,461.228,375.182z"/>
	<path style="fill:#B3B9BF;" d="M375.716,443.591H256c-4.427,0-8.017-3.588-8.017-8.017s3.589-8.017,8.017-8.017h119.716
		c4.427,0,8.017,3.588,8.017,8.017S380.143,443.591,375.716,443.591z"/>
	<path style="fill:#B3B9BF;" d="M341.511,306.772H256c-4.427,0-8.017-3.588-8.017-8.017s3.589-8.017,8.017-8.017h85.511
		c4.427,0,8.017,3.588,8.017,8.017S345.939,306.772,341.511,306.772z"/>
</g>
<path style="fill:#DF7A6E;" d="M221.795,154.99h68.409c9.713,0,17.905-7.586,18.651-17.271l3.357-43.656H199.787l3.358,43.657
	C203.89,147.404,212.082,154.99,221.795,154.99z"/>
<path style="fill:#FFC44F;" d="M304.638,19.672c-1.518-1.639-3.649-2.57-5.882-2.57h-85.511c-2.233,0-4.364,0.931-5.882,2.57
	c-1.517,1.638-2.282,3.835-2.111,6.062l8.551,111.165c0.322,4.176,3.804,7.402,7.993,7.402h68.409c4.189,0,7.671-3.226,7.993-7.402
	l8.551-111.165C306.92,23.507,306.155,21.311,304.638,19.672z M238.898,67.875c0-9.445,7.656-17.102,17.102-17.102
	c9.446,0,17.102,7.658,17.102,17.102S265.446,84.977,256,84.977C246.554,84.977,238.898,77.319,238.898,67.875z"/>
<path style="fill:#F7B14D;" d="M230.37,136.899l-8.551-111.165c-0.171-2.227,0.594-4.424,2.111-6.062
	c1.518-1.639,3.649-2.57,5.882-2.57h-16.568c-2.233,0-4.364,0.931-5.882,2.57c-1.517,1.638-2.282,3.835-2.111,6.062l8.551,111.165
	c0.322,4.176,3.804,7.402,7.993,7.402h16.568C234.174,144.301,230.692,141.075,230.37,136.899z"/>
<path style="fill:#8E959F;" d="M461.228,196.676H256c-4.427,0-8.017,3.588-8.017,8.017v34.205c0,4.428,3.589,8.017,8.017,8.017
	h205.228c4.427,0,8.017-3.588,8.017-8.017v-34.205C469.244,200.265,465.655,196.676,461.228,196.676z"/>
</svg>