<?xml version="1.0" standalone="no"?>
<!DOCTYPE svg PUBLIC "-//W3C//DTD SVG 20010904//EN"
 "http://www.w3.org/TR/2001/REC-SVG-20010904/DTD/svg10.dtd">
<svg version="1.0" xmlns="http://www.w3.org/2000/svg"
 width="368.000000pt" height="482.000000pt" viewBox="0 0 368.000000 482.000000"
 preserveAspectRatio="xMidYMid meet">

<g transform="translate(0.000000,482.000000) scale(0.100000,-0.100000)"
fill="#000000" stroke="none">
<path d="M1727 4804 c-32 -7 -67 -18 -77 -24 -22 -12 -45 -85 -56 -175 -4 -34
-15 -70 -25 -84 -23 -29 -16 -67 17 -98 14 -13 33 -51 44 -87 11 -35 27 -69
35 -76 21 -17 20 -131 -1 -171 -12 -25 -42 -43 -149 -94 -145 -69 -213 -123
-242 -192 -11 -28 -17 -33 -24 -22 -5 8 -9 22 -9 32 0 10 -12 23 -27 30 -41
18 -165 88 -192 109 -13 10 -32 18 -43 18 -10 0 -21 6 -24 14 -3 7 -16 14 -28
14 -18 0 -22 -5 -19 -19 6 -23 -30 -39 -88 -39 -21 0 -39 -3 -39 -6 0 -11 50
-54 63 -55 7 0 3 -4 -8 -8 -11 -5 -33 -4 -48 2 -19 6 -32 6 -39 -1 -7 -7 0
-12 22 -17 17 -4 29 -9 26 -13 -3 -3 -1 -12 6 -19 9 -11 9 -17 -3 -24 -10 -6
-10 -9 -1 -9 25 0 11 -18 -18 -22 -24 -4 -30 -1 -25 10 5 12 3 13 -10 2 -13
-11 -13 -15 -3 -22 10 -6 9 -11 -6 -19 -15 -9 -16 -13 -5 -21 10 -7 11 -11 2
-14 -7 -3 -9 -12 -6 -20 8 -21 -34 -18 -46 4 -14 23 -14 6 -1 -19 9 -16 7 -19
-9 -19 -11 0 -23 -4 -26 -10 -3 -5 -2 -10 4 -10 6 0 8 -7 4 -15 -3 -9 2 -22
13 -30 12 -9 14 -14 6 -15 -10 0 -10 -4 2 -16 24 -23 20 -35 -7 -25 -22 8 -23
7 -19 -15 2 -13 13 -26 23 -29 28 -9 17 -79 -26 -164 -19 -39 -35 -75 -35 -81
0 -15 67 -76 117 -106 50 -30 79 -86 74 -141 -2 -26 -62 -81 -95 -87 -18 -4
-41 -15 -50 -25 -17 -18 -16 -20 3 -26 41 -13 134 12 234 61 37 19 70 34 73
34 3 0 0 -9 -6 -21 -25 -45 -131 -85 -305 -115 -55 -9 -105 -21 -111 -26 -7
-5 -35 -11 -63 -15 -41 -5 -49 -8 -40 -19 17 -20 -11 -28 -82 -21 -54 5 -74
-3 -49 -18 5 -3 -16 -53 -47 -111 -53 -101 -55 -108 -56 -182 0 -42 0 -113 -1
-157 -7 -575 33 -1618 63 -1648 16 -16 13 -160 -4 -241 -10 -47 -28 -89 -57
-134 -32 -49 -44 -79 -48 -119 -4 -30 -4 -56 -1 -58 3 -1 63 -6 132 -10 143
-8 169 -2 169 43 0 19 7 30 23 37 19 9 22 19 25 80 2 39 -4 111 -12 161 -9 50
-16 116 -16 145 l0 54 54 23 53 23 6 147 c14 309 67 707 137 1020 17 73 30
136 31 140 2 23 39 -113 44 -163 10 -94 44 -253 85 -400 4 -16 8 -105 9 -197
0 -114 7 -209 21 -299 11 -73 20 -145 20 -161 0 -21 6 -31 25 -38 24 -9 25
-13 25 -92 0 -46 -7 -118 -15 -161 -8 -43 -15 -114 -15 -156 0 -74 1 -78 25
-89 14 -7 39 -12 55 -12 20 0 30 -5 30 -15 0 -21 59 -55 95 -55 17 0 71 7 120
15 146 25 138 21 131 58 -4 18 -7 40 -7 50 0 9 -4 17 -10 17 -5 0 -9 7 -9 15
0 8 -4 15 -9 15 -15 0 -101 82 -131 125 -32 46 -49 130 -50 236 l0 56 58 36
59 36 -18 131 c-9 72 -22 197 -28 278 -7 81 -14 167 -16 192 -10 111 -17 548
-10 672 l7 138 25 -20 c23 -18 53 -18 53 1 0 6 -9 28 -21 50 -24 48 -21 63 12
64 25 0 25 1 20 80 -2 31 10 230 14 234 2 2 24 0 48 -3 l43 -7 -2 -104 c-2
-70 -7 -111 -17 -127 -24 -37 -30 -93 -12 -108 10 -8 15 -31 16 -64 0 -58 16
-111 19 -66 l2 25 8 -25 c4 -14 8 -77 9 -141 1 -63 5 -119 10 -125 8 -8 17
-40 20 -79 1 -5 6 -3 11 5 9 13 10 13 11 0 0 -8 2 -28 4 -45 12 -96 19 -165
34 -330 24 -264 33 -417 30 -512 -3 -86 -7 -106 -26 -132 -29 -38 -29 -70 -1
-132 16 -33 29 -49 42 -49 15 0 17 5 12 35 -4 19 -3 35 1 35 10 0 35 -62 27
-69 -2 -3 -23 -5 -44 -6 -48 0 -55 -15 -45 -83 7 -50 18 -76 43 -105 15 -16
17 -16 38 4 18 17 40 23 97 27 46 3 82 0 95 -7 32 -17 29 8 -13 95 -22 46 -35
87 -35 113 0 32 -7 49 -34 78 -35 40 -60 82 -54 89 3 2 25 -10 51 -26 l47 -30
0 28 c0 16 -6 51 -14 78 -8 27 -19 81 -25 121 -10 67 -9 77 13 137 21 54 26
91 31 208 3 79 12 179 20 223 8 44 17 116 20 160 8 104 27 267 31 263 1 -2 12
-97 24 -211 11 -115 23 -213 25 -220 6 -16 31 -268 46 -451 6 -81 9 -199 7
-262 -3 -63 -1 -114 3 -114 9 0 10 19 16 225 2 55 4 127 5 160 1 33 -1 101 -5
150 -4 50 -2 145 4 212 8 89 8 143 0 200 -12 86 -18 384 -7 401 3 6 2 13 -3
16 -11 7 -9 25 3 45 6 10 5 12 -2 7 -9 -5 -12 7 -12 41 -1 58 -8 145 -17 193
-4 19 -8 40 -9 45 -1 6 -3 12 -4 15 -7 19 -7 41 1 46 5 3 9 16 9 29 0 13 11
36 25 51 14 15 25 31 25 35 0 5 7 9 15 9 7 0 18 7 23 17 18 31 39 7 47 -54 20
-157 24 -211 17 -217 -8 -8 -14 -129 -10 -183 1 -7 6 -13 12 -13 6 0 4 -5 -4
-10 -16 -10 -23 -70 -9 -70 5 0 9 -4 9 -10 0 -5 -8 -10 -17 -10 -15 0 -14 -2
3 -15 10 -8 14 -15 9 -15 -6 0 -10 -24 -10 -54 0 -30 4 -52 8 -49 11 7 5 -90
-6 -98 -5 -3 -1 -14 8 -23 15 -15 15 -17 -1 -23 -16 -6 -16 -7 2 -20 10 -7 13
-13 7 -13 -16 0 -12 -91 4 -108 7 -8 11 -17 8 -22 -3 -5 1 -11 7 -14 10 -3 9
-8 -4 -18 -10 -9 -13 -19 -8 -27 6 -11 8 -11 12 0 3 8 5 -13 6 -46 2 -87 4
-99 15 -113 7 -9 7 -16 0 -23 -6 -6 -7 -27 -4 -47 6 -36 5 -58 -4 -172 -4 -48
-2 -57 17 -71 12 -9 29 -41 38 -70 16 -50 16 -56 -2 -114 -10 -33 -21 -76 -23
-95 -13 -93 -36 -125 -110 -151 -50 -18 -43 -29 18 -29 44 0 53 -3 53 -18 0
-16 -9 -18 -66 -18 l-65 1 -36 -73 c-20 -40 -39 -84 -42 -98 -4 -21 -2 -24 17
-17 11 5 54 8 94 7 57 -1 79 -5 101 -22 27 -20 30 -20 44 -4 24 26 37 69 41
133 2 31 7 63 11 69 4 7 10 303 12 659 3 432 8 653 15 668 6 12 8 36 4 55 -3
18 -8 53 -11 78 l-5 45 14 -40 14 -40 1 70 c1 49 4 66 11 55 7 -10 10 12 10
73 0 71 3 87 15 87 23 0 20 71 -5 102 -17 23 -19 38 -16 164 3 91 -1 164 -10
212 -8 41 -14 86 -13 100 2 44 48 -219 48 -275 1 -28 6 -55 11 -58 6 -3 10
-32 10 -63 1 -31 7 -75 15 -97 8 -22 15 -50 15 -62 0 -12 4 -25 10 -28 5 -3 1
-22 -11 -46 -17 -32 -19 -42 -9 -54 19 -22 34 -18 69 17 l31 32 0 -590 c0
-620 7 -769 44 -999 13 -77 21 -160 19 -183 -5 -44 20 -122 39 -122 20 0 4
-20 -52 -63 -43 -34 -60 -54 -60 -71 0 -21 7 -25 83 -41 93 -19 153 -13 227
25 22 11 41 20 43 20 1 0 1 -15 -1 -33 l-4 -34 64 -14 c96 -21 162 -15 232 21
32 16 74 30 93 30 37 0 93 24 93 40 0 6 8 10 19 10 27 0 30 30 28 340 0 151 3
361 7 465 4 110 3 297 -3 445 -6 140 -11 445 -12 678 0 232 -3 422 -6 422 -3
0 -27 -17 -52 -37 l-46 -36 45 49 c25 27 95 101 156 164 138 144 188 206 178
221 -4 8 -3 9 4 5 11 -6 16 6 13 27 0 4 3 7 9 7 5 0 6 7 3 17 -4 11 -3 14 5 9
8 -5 10 -1 5 10 -6 17 -7 17 -17 0 -62 -103 -238 -291 -321 -341 -36 -22 -51
-38 -57 -62 -5 -18 -17 -37 -27 -42 -16 -9 -19 -6 -23 17 -2 15 -4 54 -4 87
l1 59 46 13 c25 7 55 23 65 36 l19 22 -23 -19 c-25 -22 -23 -22 -38 20 -11 31
-10 32 18 38 17 3 41 6 54 6 13 0 24 4 24 9 0 11 93 134 142 188 21 24 38 51
38 60 0 10 14 42 31 72 31 53 31 54 51 34 11 -11 22 -39 25 -62 3 -22 9 -41
14 -41 11 0 1 109 -16 183 -19 82 -20 77 21 130 l36 46 -29 48 c-16 26 -44 81
-62 122 -67 152 -138 253 -186 267 -11 3 -29 9 -40 14 -11 4 -50 20 -88 36
-37 15 -72 33 -78 41 -6 7 -17 13 -25 13 -16 0 -51 48 -59 83 -8 30 -8 30 55
17 59 -12 109 2 145 40 27 29 30 38 33 113 6 139 -45 288 -133 385 -45 50
-122 91 -144 77 -6 -3 -23 3 -37 14 -68 53 -213 -3 -278 -108 -35 -57 -56
-118 -77 -224 -34 -173 -21 -276 36 -307 17 -9 48 -11 104 -7 58 5 81 3 84 -6
3 -7 6 2 6 18 1 25 -8 38 -44 68 -75 63 -93 119 -75 228 15 87 55 139 127 163
72 25 118 21 142 -10 30 -38 27 -54 -11 -54 -40 0 -62 -13 -56 -31 3 -8 -1
-20 -9 -27 -12 -13 -18 -45 -15 -84 1 -10 -3 -18 -8 -18 -6 0 -10 -6 -10 -14
0 -15 62 -29 86 -19 12 4 14 14 10 38 -6 29 -4 33 20 39 14 4 29 4 32 1 7 -7
-16 -75 -33 -95 -7 -8 -15 -24 -16 -34 -4 -19 -15 -28 -54 -42 -19 -7 -19 -8
3 -11 29 -6 28 -17 -4 -59 -21 -28 -23 -34 -10 -34 9 0 20 -10 25 -23 5 -12
32 -37 60 -55 28 -19 51 -37 51 -41 0 -26 -117 -101 -157 -101 -28 0 -31 -26
-5 -34 10 -4 37 0 60 8 46 16 59 12 15 -5 -22 -8 -24 -12 -13 -20 12 -7 11
-10 -7 -15 -12 -3 -40 -32 -63 -65 -23 -32 -49 -59 -58 -59 -15 0 -15 -2 -2
-10 13 -8 12 -10 -3 -10 -9 0 -23 -12 -30 -27 -6 -16 -16 -31 -21 -35 -20 -13
-11 -131 14 -193 13 -33 28 -64 32 -69 10 -13 11 -66 1 -66 -5 0 -17 7 -27 15
-10 8 -23 12 -27 9 -5 -3 -9 -1 -9 3 0 5 -11 21 -26 36 -14 15 -23 31 -21 35
3 4 -10 7 -29 8 -19 0 -34 -2 -35 -5 0 -3 -2 -20 -3 -38 -1 -17 -8 -39 -15
-47 -9 -10 -10 -16 -3 -16 7 0 9 -7 5 -17 -4 -11 -3 -14 5 -9 17 10 15 -5 -8
-49 -35 -67 -18 -169 31 -195 11 -7 27 -9 35 -6 9 3 12 1 9 -4 -3 -6 1 -10 9
-10 9 0 16 4 16 8 0 9 53 37 110 59 49 19 72 24 65 13 -11 -17 -112 -80 -129
-80 -9 0 -16 -5 -16 -11 0 -6 -7 -9 -15 -5 -17 6 -22 -29 -5 -39 7 -4 6 -14
-2 -28 -15 -29 -18 -80 -4 -90 18 -14 -172 2 -217 18 -47 16 -39 22 -95 -75
l-37 -65 -6 165 c-4 91 -9 181 -13 200 -3 19 -2 86 2 149 l7 114 40 12 c30 8
40 16 39 31 -3 45 -105 396 -139 477 -55 130 -114 175 -315 242 -47 16 -93 37
-102 47 -29 32 -32 96 -8 163 12 33 32 95 44 138 20 71 36 91 36 45 0 -24 17
-23 30 2 17 31 9 86 -11 82 -14 -2 -16 5 -12 41 7 63 -14 188 -36 211 -21 21
-141 56 -186 55 -16 0 -56 -7 -88 -15z m1653 -967 c0 -2 -9 -12 -20 -22 -24
-21 -27 -14 -4 9 15 15 24 20 24 13z m-80 -67 c0 -5 -5 -10 -11 -10 -5 0 -7 5
-4 10 3 6 8 10 11 10 2 0 4 -4 4 -10z m-2510 -20 c0 -5 -7 -10 -15 -10 -8 0
-15 5 -15 10 0 6 7 10 15 10 8 0 15 -4 15 -10z m0 -30 c0 -5 -2 -10 -4 -10 -3
0 -8 5 -11 10 -3 6 -1 10 4 10 6 0 11 -4 11 -10z m1970 -410 c0 -5 -5 -10 -11
-10 -5 0 -7 5 -4 10 3 6 8 10 11 10 2 0 4 -4 4 -10z m721 -159 c22 -68 22 -71
5 -109 -10 -21 -28 -52 -41 -68 l-24 -29 -1 127 c0 111 2 128 18 137 9 6 18
11 19 11 1 0 12 -31 24 -69z m-2041 47 c0 -18 -39 -297 -55 -398 -8 -47 -12
-62 -9 -35 2 28 9 131 14 230 6 99 13 188 16 198 6 19 34 23 34 5z m807 -190
c-2 -13 -4 -3 -4 22 0 25 2 35 4 23 2 -13 2 -33 0 -45z m-91 -1975 c-10 -10
-19 5 -10 18 6 11 8 11 12 0 2 -7 1 -15 -2 -18z m-462 -514 c-4 -8 4 -9 27 -5
19 3 29 3 22 0 -7 -3 -9 -12 -6 -20 3 -8 0 -14 -7 -14 -6 0 -8 5 -5 10 3 6 0
10 -8 10 -10 0 -13 -7 -10 -21 5 -16 11 -19 30 -14 14 3 22 2 19 -3 -3 -6 -22
-13 -42 -16 -19 -4 -43 -9 -52 -12 -9 -2 -3 2 13 10 30 15 30 15 5 17 -24 2
-24 2 -2 6 22 4 32 23 11 23 -5 0 -7 5 -4 10 3 6 -4 10 -17 11 -22 0 -22 1 -3
9 28 12 37 12 29 -1z m371 -7 c-15 -11 -15 -42 1 -42 8 0 11 6 8 15 -4 8 -1
15 6 15 6 0 8 5 4 13 -5 7 -1 6 10 -3 17 -13 17 -14 -1 -21 -15 -7 -14 -8 7
-10 24 -2 24 -2 3 -6 -13 -2 -23 -8 -23 -13 0 -5 10 -11 23 -13 19 -4 18 -4
-5 -6 -16 0 -28 3 -28 8 0 6 -19 14 -42 19 -34 8 -37 10 -15 11 32 1 37 20 5
22 -19 1 -17 3 7 9 42 11 52 11 40 2z m-4 -71 c20 -12 26 -21 17 -24 -9 -3 -5
-8 10 -14 17 -6 4 -9 -47 -8 -38 0 -67 3 -64 8 2 4 14 7 26 8 21 1 20 2 -3 10
-19 7 -14 8 20 4 34 -3 40 -2 23 5 -13 5 -23 14 -23 20 0 14 5 13 41 -9z
m-1748 -35 c3 -8 -1 -17 -9 -20 -9 -4 -14 1 -14 14 0 23 15 27 23 6z m140
-121 c-6 -95 -14 -115 -44 -115 -20 0 -25 15 -9 25 6 3 10 30 10 59 0 30 7 67
15 82 8 16 15 38 15 49 0 17 2 17 10 5 5 -9 7 -54 3 -105z m804 -71 c-3 -3
-12 -4 -19 -1 -8 3 -5 6 6 6 11 1 17 -2 13 -5z"/>
<path d="M648 4772 c-63 -23 -96 -57 -113 -117 -25 -84 -21 -275 5 -275 10 0
20 52 20 112 0 58 21 112 48 127 33 17 129 13 230 -10 110 -26 124 -40 127
-127 3 -103 28 -138 41 -56 9 65 -12 210 -39 264 -17 34 -34 51 -71 69 -64 32
-180 38 -248 13z"/>
<path d="M623 4538 c-36 -17 -27 -31 15 -24 20 3 52 6 71 6 29 0 32 2 21 15
-14 17 -74 19 -107 3z"/>
<path d="M810 4525 c-7 -9 -11 -17 -9 -19 7 -7 129 -10 135 -3 17 16 -21 37
-66 37 -30 0 -52 -5 -60 -15z"/>
<path d="M795 4470 c-9 -14 3 -98 15 -105 4 -3 6 3 3 13 -5 21 12 38 42 44 14
2 20 11 20 28 0 22 -5 25 -37 28 -20 2 -39 -2 -43 -8z m42 -32 c-3 -8 -6 -5
-6 6 -1 11 2 17 5 13 3 -3 4 -12 1 -19z"/>
<path d="M660 4450 c0 -15 5 -20 18 -18 9 2 17 10 17 18 0 8 -8 16 -17 18 -13
2 -18 -3 -18 -18z"/>
<path d="M2848 4414 c-16 -8 -28 -19 -28 -24 0 -13 17 -13 25 0 3 6 24 10 46
10 42 0 53 14 17 24 -30 8 -28 8 -60 -10z"/>
<path d="M2866 4345 c-6 -17 16 -31 33 -21 13 9 2 36 -14 36 -7 0 -16 -7 -19
-15z"/>
<path d="M700 4291 c0 -12 21 -28 51 -40 19 -7 34 -5 57 6 37 18 42 43 10 43
-17 0 -19 -3 -10 -9 11 -6 10 -10 -4 -15 -21 -8 -84 3 -84 15 0 5 -4 9 -10 9
-5 0 -10 -4 -10 -9z"/>
<path d="M3010 4220 c-8 -5 -10 -10 -5 -10 6 0 3 -5 -5 -10 -21 -13 -64 -12
-78 2 -6 6 -15 8 -19 4 -11 -11 26 -36 53 -36 32 0 68 18 82 41 14 22 -1 26
-28 9z"/>
<path d="M840 4150 c-8 -5 -23 -11 -33 -14 -17 -6 -16 -9 10 -34 15 -15 37
-40 48 -56 l20 -28 -3 71 c-4 71 -9 80 -42 61z"/>
<path d="M2858 3923 c-25 -30 -28 -51 -9 -75 10 -13 21 -32 25 -42 3 -10 10
-16 14 -12 13 14 8 31 -15 49 -27 22 -29 44 -6 69 9 10 14 20 11 23 -3 3 -12
-3 -20 -12z"/>
<path d="M2815 3885 c-3 -8 -7 -21 -9 -29 -3 -8 1 -22 8 -31 12 -17 13 -17 19
-1 5 11 3 15 -4 10 -8 -5 -10 5 -7 30 4 37 1 47 -7 21z"/>
<path d="M328 3561 c-8 -11 -26 -25 -41 -32 -15 -7 -27 -18 -27 -26 0 -7 -5
-13 -11 -13 -5 0 -7 -4 -4 -10 3 -5 2 -10 -3 -10 -5 0 -14 -11 -20 -25 -15
-33 -42 -149 -42 -181 0 -26 -30 -44 -76 -44 -13 0 -24 -4 -24 -10 0 -5 14
-10 30 -10 27 0 29 -2 19 -18 -10 -15 -6 -31 20 -83 23 -47 32 -79 32 -119 1
-33 7 -62 16 -72 10 -11 11 -18 3 -23 -11 -7 -4 -71 10 -90 14 -19 18 -54 7
-58 -6 -2 3 -8 20 -15 43 -15 57 2 42 49 -7 19 -16 39 -21 46 -5 7 -6 18 -2
24 11 18 5 299 -7 321 -8 15 -6 18 11 18 23 0 27 25 6 37 -11 6 -6 25 30 98
24 50 44 81 45 70 0 -14 3 -11 10 10 6 20 5 47 -2 78 -6 27 -9 61 -5 78 6 34
2 36 -16 10z"/>
<path d="M2610 3541 c0 -6 4 -13 10 -16 6 -3 7 1 4 9 -7 18 -14 21 -14 7z"/>
<path d="M3631 3024 c0 -11 3 -14 6 -6 3 7 2 16 -1 19 -3 4 -6 -2 -5 -13z"/>
<path d="M3620 2990 c0 -5 5 -10 11 -10 5 0 7 5 4 10 -3 6 -8 10 -11 10 -2 0
-4 -4 -4 -10z"/>
<path d="M2695 2912 c-10 -10 -5 -21 15 -32 15 -8 21 -6 29 9 9 16 7 20 -14
23 -13 3 -27 3 -30 0z"/>
<path d="M566 2874 c-9 -22 -8 -23 13 -17 12 3 17 11 14 19 -7 19 -19 18 -27
-2z"/>
<path d="M2282 1955 c0 -16 4 -41 8 -55 7 -23 8 -22 8 10 0 19 -3 44 -8 55 -7
17 -9 15 -8 -10z"/>
<path d="M1761 1004 c0 -11 3 -14 6 -6 3 7 2 16 -1 19 -3 4 -6 -2 -5 -13z"/>
<path d="M2095 932 c-6 -6 4 -22 15 -22 4 0 10 6 13 13 5 13 -17 20 -28 9z"/>
<path d="M1835 350 c-7 -12 2 -30 16 -30 12 0 12 27 0 35 -5 3 -12 1 -16 -5z"/>
</g>
</svg>
