<?xml version="1.0" encoding="utf-8"?>
<!-- Generator: Adobe Illustrator 27.5.0, SVG Export Plug-In . SVG Version: 6.00 Build 0)  -->
<svg version="1.1" id="Capa_2" xmlns="http://www.w3.org/2000/svg" xmlns:xlink="http://www.w3.org/1999/xlink" x="0px" y="0px"
	 viewBox="0 0 2122 2122" style="enable-background:new 0 0 2122 2122;" xml:space="preserve">
<g>
	<path style="fill:#EB5865;" d="M1160.499,1044.904l-31.363-158.888c20.548,6.523,45.621,3.763,67.847-9.585
		c37.089-22.273,52.108-65.383,33.548-96.291c-9.723-16.191-26.756-25.747-46.082-28.045
		c63.983-60.357,167.939-179.762-17.255-174.862c0,0-71.225-348.629-389.57-49.151c-37.64,35.409-22.844,98.369,26.447,113.893
		c0,0,3.857,1.841,11.019,4.47c-6.648,9.096-12.841,18.74-18.49,28.924c-31.691,57.14-40.222,119.759-28.367,174.025l-0.006,0.002
		l0.062,0.256c0.648,2.948,1.358,5.87,2.125,8.766l0.211,0.79c0.757,2.812,1.572,5.597,2.442,8.355l0.333,1.04
		c0.856,2.666,1.766,5.304,2.726,7.916l0.487,1.295c0.945,2.512,1.937,5,2.979,7.457c0.22,0.519,0.448,1.032,0.673,1.548
		c1.024,2.355,2.087,4.687,3.2,6.988c0.291,0.601,0.594,1.193,0.891,1.791c1.091,2.196,2.215,4.371,3.388,6.513
		c0.371,0.677,0.759,1.343,1.138,2.015c1.149,2.035,2.323,4.054,3.547,6.036c0.465,0.753,0.952,1.489,1.427,2.234
		c1.193,1.869,2.402,3.726,3.661,5.545c0.571,0.825,1.17,1.626,1.754,2.44c1.226,1.705,2.46,3.402,3.745,5.059
		c0.684,0.882,1.401,1.734,2.101,2.601c1.25,1.547,2.501,3.093,3.805,4.594c0.811,0.934,1.662,1.833,2.494,2.749
		c1.257,1.384,2.507,2.774,3.811,4.115c0.962,0.99,1.971,1.937,2.959,2.903c1.243,1.216,2.471,2.445,3.755,3.622
		c1.127,1.034,2.305,2.016,3.462,3.018c1.215,1.053,2.409,2.127,3.658,3.146c1.324,1.08,2.707,2.1,4.07,3.141
		c1.151,0.879,2.273,1.787,3.451,2.637c1.635,1.18,3.334,2.29,5.021,3.414c0.971,0.648,1.91,1.331,2.899,1.959
		c2.709,1.722,5.479,3.374,8.316,4.947c2.83,1.57,5.693,3.041,8.581,4.425c0.986,0.472,1.991,0.879,2.983,1.33
		c1.914,0.87,3.825,1.752,5.761,2.542c1.203,0.491,2.424,0.913,3.634,1.374c1.749,0.665,3.493,1.349,5.258,1.951
		c1.314,0.449,2.643,0.831,3.965,1.244c1.682,0.526,3.359,1.069,5.053,1.54c1.396,0.388,2.805,0.712,4.209,1.062
		c1.635,0.407,3.267,0.829,4.913,1.186l1.058,0.248l14.221,72.042c-266.133,85.115-379.769,384.368-379.769,384.368
		s154.75,273.09,527.973,273.09c373.222,0,527.973-285.227,527.973-285.227S1471.53,1106.326,1160.499,1044.904z"/>
	<path style="fill:#B7292A;" d="M971.919,984.629c-1.262,0.267-2.524,0.521-3.788,0.763c-1.851,0.353-3.702,0.68-5.556,0.978
		c-1.329,0.214-2.658,0.409-3.988,0.595c-1.796,0.25-3.591,0.48-5.387,0.678c-1.391,0.153-2.782,0.282-4.173,0.403
		c-1.741,0.152-3.479,0.29-5.218,0.392c-1.451,0.085-2.9,0.139-4.349,0.189c-1.683,0.058-3.365,0.109-5.044,0.12
		c-1.499,0.01-2.994-0.018-4.491-0.047c-1.634-0.031-3.266-0.063-4.896-0.14c-1.535-0.072-3.065-0.189-4.596-0.301
		c-1.585-0.117-3.169-0.229-4.748-0.389c-1.575-0.16-3.142-0.372-4.711-0.576c-1.527-0.199-3.055-0.385-4.575-0.626
		c-1.609-0.254-3.208-0.567-4.81-0.869c-1.116-0.21-2.241-0.372-3.353-0.606l21.418,108.506
		c46.88-9.254,77.383-54.76,68.129-101.641c-0.719-3.644-1.729-7.149-2.87-10.585c-1.236,0.348-2.477,0.637-3.714,0.961
		c-1.186,0.311-2.372,0.615-3.561,0.904C975.733,983.797,973.828,984.226,971.919,984.629z"/>
	<path style="fill:#68103E;" d="M1110.995,627.903c0,0-68.27,79.511,10.714,142.093c2.57-1.93,5.228-3.789,8.06-5.49
		c17.659-10.605,37.115-14.5,54.68-12.411c63.983-60.357,167.939-179.762-17.255-174.862c0,0-71.225-348.629-389.57-49.151
		c-37.64,35.409-22.844,98.369,26.447,113.893c0,0,3.857,1.841,11.019,4.47C849.548,659.095,962.363,690.445,1110.995,627.903z"/>
	<path style="fill:#B7292A;" d="M1126.989,833.866c-3.319,0.586-5.188,4.643-4.355,7.672c0.962,3.501,4.342,4.944,7.671,4.355
		c27.504-4.858,53.088-19.671,71.009-41.091c2.16-2.581,2.53-6.289,0-8.819c-2.221-2.221-6.648-2.595-8.82,0
		C1175.769,815.973,1152.655,829.332,1126.989,833.866z"/>
	<path style="fill:#A673B0;" d="M1160.499,1044.904l10.126,51.298c3.301,16.724-47.991,40.934-114.564,54.075
		c-66.574,13.141-123.218,10.236-126.519-6.487l-17.086-86.556c-266.133,85.115-379.769,384.368-379.769,384.368
		s154.75,273.09,527.973,273.09c373.222,0,527.973-285.227,527.973-285.227S1471.53,1106.326,1160.499,1044.904z"/>
	<path style="fill:#B7292A;" d="M840.891,738.036c-3.729-1.067-8.283,3.418-10.17,10.017c-1.888,6.599-0.395,12.813,3.335,13.88
		c3.729,1.067,8.283-3.418,10.17-10.017C846.114,745.318,844.621,739.103,840.891,738.036z"/>
	<path style="fill:#B7292A;" d="M970.482,761.934c3.729,1.067,8.283-3.418,10.17-10.017c1.888-6.599,0.395-12.813-3.335-13.88
		c-3.729-1.067-8.283,3.418-10.17,10.017C965.259,754.653,966.752,760.867,970.482,761.934z"/>
	<path style="fill:#68103E;" d="M1098.894,864.693c-10.048-3.162-20.209-5.922-30.262-8.458
		c-32.772-8.269-66.128-16.074-99.55-21.177c-36.155-5.52-74.094-7.916-111.392-4.993c-0.79-0.788-1.6-1.557-2.386-2.348
		c-6.752-6.79-3.479-13.538,1.359-19.665c6.375-8.072,12.749-16.144,19.124-24.216c4.921-6.232,9.842-12.463,14.763-18.694
		c4.923-6.233-3.846-15.118-8.819-8.82c-11.36,14.385-22.72,28.77-34.08,43.154c-1.678,2.125-3.59,4.248-5.054,6.528
		c-4.857,7.567-4.981,17.606-0.354,25.311l0.154,0.227c-25.443,3.041-50.427,8.745-74.164,17.853l-0.006,0.002l0.062,0.256
		c0.648,2.948,1.358,5.87,2.125,8.766l0.211,0.79c0.757,2.812,1.572,5.597,2.442,8.355l0.333,1.04
		c0.856,2.666,1.766,5.304,2.726,7.916l0.487,1.295c0.945,2.512,1.937,5,2.979,7.457c0.22,0.519,0.448,1.032,0.673,1.548
		c1.024,2.355,2.087,4.687,3.2,6.988c0.291,0.601,0.594,1.193,0.891,1.791c1.091,2.196,2.215,4.371,3.388,6.513
		c0.371,0.677,0.759,1.343,1.138,2.015c1.149,2.035,2.323,4.054,3.547,6.036c0.465,0.753,0.952,1.489,1.427,2.234
		c1.193,1.869,2.402,3.726,3.661,5.545c0.571,0.825,1.17,1.626,1.754,2.44c1.226,1.705,2.46,3.402,3.745,5.059
		c0.684,0.882,1.401,1.734,2.101,2.601c1.25,1.547,2.501,3.093,3.805,4.594c0.811,0.934,1.662,1.833,2.494,2.749
		c1.257,1.384,2.507,2.774,3.811,4.115c0.962,0.99,1.971,1.937,2.959,2.903c1.243,1.216,2.471,2.445,3.755,3.622
		c1.127,1.034,2.305,2.016,3.462,3.018c1.215,1.053,2.409,2.127,3.658,3.146c1.324,1.08,2.707,2.1,4.07,3.141
		c1.151,0.879,2.273,1.787,3.451,2.637c1.635,1.18,3.334,2.29,5.021,3.414c0.971,0.648,1.91,1.331,2.899,1.959
		c2.709,1.722,5.479,3.374,8.316,4.947c2.83,1.57,5.693,3.041,8.581,4.425c0.986,0.472,1.991,0.879,2.983,1.33
		c1.914,0.87,3.825,1.752,5.761,2.542c1.203,0.491,2.424,0.913,3.634,1.374c1.749,0.665,3.493,1.349,5.258,1.951
		c1.314,0.449,2.643,0.831,3.965,1.244c1.682,0.526,3.359,1.069,5.053,1.54c1.396,0.388,2.805,0.712,4.209,1.062
		c1.635,0.407,3.267,0.829,4.913,1.186c1.464,0.317,2.939,0.576,4.411,0.854c1.602,0.302,3.201,0.615,4.81,0.869
		c1.52,0.24,3.049,0.427,4.575,0.626c1.569,0.204,3.136,0.416,4.711,0.576c1.579,0.16,3.164,0.272,4.748,0.389
		c1.531,0.113,3.061,0.229,4.596,0.301c1.629,0.076,3.263,0.109,4.896,0.14c1.496,0.028,2.991,0.057,4.491,0.047
		c1.68-0.011,3.362-0.061,5.044-0.12c1.449-0.05,2.898-0.104,4.349-0.189c1.739-0.103,3.478-0.24,5.218-0.392
		c1.392-0.121,2.782-0.25,4.173-0.403c1.796-0.198,3.592-0.427,5.387-0.678c1.33-0.186,2.659-0.381,3.988-0.595
		c1.853-0.298,3.705-0.624,5.556-0.978c1.264-0.242,2.526-0.496,3.788-0.763c1.908-0.404,3.815-0.831,5.718-1.293
		c1.188-0.288,2.374-0.593,3.561-0.904c52.11-13.644,101.999-48.9,137.146-100.937
		C1110.679,877.415,1104.034,871.793,1098.894,864.693z"/>
	<path style="fill:#65358B;" d="M1275.464,1270.488c-1.715-7.351-3.406-14.72-4.835-22.134c-1.518-7.873-13.542-4.54-12.027,3.316
		c4.329,22.454,10.143,44.685,16.194,66.721c14.433,52.553,31.968,104.311,52.838,154.66
		c14.485,34.946,30.562,69.211,48.661,102.436c3.84,7.051,14.614,0.763,10.769-6.295
		C1336.217,1475.847,1299.592,1373.938,1275.464,1270.488z"/>
	<path style="fill:#65358B;" d="M766.272,1206.44c-12.679,16.631-24.306,34.136-35.657,51.684
		c-27.461,42.451-52.445,86.571-74.36,132.138c-15.042,31.276-28.608,63.273-40.283,95.959c-2.705,7.573,9.342,10.832,12.027,3.316
		c32.902-92.107,80.488-179.744,136.678-259.722c4.039-5.749,8.105-11.492,12.365-17.08
		C781.907,1206.354,771.08,1200.134,766.272,1206.44z"/>
	<path style="fill:#B7292A;" d="M860.474,850.206c7.086,6.924,14.172,13.849,21.258,20.773c5.745,5.614,14.572-3.198,8.819-8.819
		c-10.948-10.698-22.027-21.281-32.861-32.096c-0.79-0.788-1.6-1.557-2.386-2.348c-6.752-6.79-3.479-13.538,1.359-19.665
		c6.375-8.072,12.749-16.144,19.124-24.216c4.921-6.232,9.842-12.463,14.763-18.694c4.923-6.233-3.846-15.118-8.819-8.82
		c-11.36,14.385-22.72,28.77-34.08,43.154c-1.678,2.125-3.59,4.248-5.054,6.528c-4.857,7.567-4.981,17.606-0.354,25.311l0.154,0.227
		C846.757,838.645,854.621,844.486,860.474,850.206z"/>
	<path style="fill:#B7292A;" d="M932.472,896.505c-3.261,0.022-6.387,2.852-6.236,6.236c0.151,3.36,2.741,6.26,6.236,6.236
		c12.575-0.086,24.791-5.048,33.703-13.96c8.912-8.912,13.874-21.129,13.96-33.703c0.023-3.263-2.884-6.386-6.236-6.236
		c-3.398,0.152-6.212,2.74-6.236,6.236c-0.009,1.344-0.064,2.685-0.193,4.023l-0.085,0.774l-0.06,0.376
		c-0.102,0.552-0.195,1.104-0.309,1.655c-0.263,1.27-0.59,2.528-0.972,3.767c-0.217,0.702-0.453,1.398-0.707,2.087l-0.325,0.834
		c-0.966,2.227-2.146,4.371-3.497,6.385c-0.352,0.524-0.719,1.036-1.09,1.546l-0.02,0.027l-0.504,0.622
		c-0.805,0.966-1.655,1.896-2.544,2.786c-0.89,0.89-1.82,1.739-2.786,2.545l-0.696,0.552c-0.494,0.362-0.99,0.721-1.498,1.063
		c-2.013,1.35-4.157,2.529-6.383,3.495l-0.837,0.326c-0.69,0.254-1.385,0.49-2.088,0.707c-1.239,0.383-2.497,0.708-3.767,0.972
		c-0.55,0.114-1.105,0.202-1.656,0.309l-0.402,0.063l-0.465,0.052C935.347,896.431,933.912,896.495,932.472,896.505z"/>
</g>
</svg>
