<?xml version="1.0" encoding="iso-8859-1"?>
<!-- Uploaded to: SVG Repo, www.svgrepo.com, Generator: SVG Repo Mixer Tools -->
<svg version="1.1" id="Layer_1" xmlns="http://www.w3.org/2000/svg" xmlns:xlink="http://www.w3.org/1999/xlink" 
	 viewBox="0 0 512 512" xml:space="preserve">
<polygon style="fill:#F2CA7F;" points="107.551,479.785 509.987,481.484 512,4.361 34.878,2.348 32.865,479.471 "/>
<g>
	<path style="fill:#898686;" d="M74.399,161.482h117.603V43.879H74.399V161.482z M94.447,63.928h77.506v77.506H94.447V63.928z"/>
	<path style="fill:#898686;" d="M352.872,43.879v117.603h117.603V43.879H352.872z M450.426,141.434H372.92V63.928h77.506V141.434z"
		/>
	<path style="fill:#898686;" d="M352.872,439.955h117.603V322.352H352.872L352.872,439.955L352.872,439.955z M372.92,342.401h77.506
		v77.506H372.92L372.92,342.401L372.92,342.401z"/>
	<rect x="214.973" y="112.846" style="fill:#898686;" width="63.487" height="20.048"/>
	<polygon style="fill:#898686;" points="372.92,267.212 434.822,267.212 434.822,247.164 372.92,247.164 372.92,187.021 
		352.872,187.021 352.872,247.164 352.872,267.212 352.872,299.287 372.92,299.287 	"/>
	<polygon style="fill:#898686;" points="296.493,43.879 214.968,43.879 214.968,63.928 296.493,63.928 296.493,168.979 
		316.541,168.979 316.541,63.928 336.59,63.928 336.59,43.879 316.541,43.879 	"/>
</g>
<path style="fill:#79B1D6;" d="M97.277,379.763L6.751,470.302c-8.995,8.995-9.008,23.59,0,32.599s23.604,8.995,32.599,0
	l90.539-90.525"/>
<circle style="fill:#8CC1EA;" cx="194.23" cy="315.429" r="125.61"/>
<path style="fill:#E4F2F9;" d="M257.039,378.235c-11.428,11.428-25.194,19.086-39.763,22.976
	c-29.645,7.939-62.591,0.281-85.861-22.976c-34.684-34.684-34.684-90.926,0-125.61c23.27-23.27,56.216-30.928,85.861-22.989
	c14.569,3.889,28.335,11.561,39.763,22.989C291.723,287.309,291.723,343.552,257.039,378.235z"/>
<path style="fill:#CEE5F2;" d="M257.039,378.235c-11.428,11.428-25.194,19.086-39.763,22.976
	c-14.555-3.889-28.322-11.548-39.749-22.976c-34.684-34.684-34.684-90.926,0-125.61c11.428-11.428,25.194-19.099,39.749-22.989
	c14.569,3.889,28.335,11.561,39.763,22.989C291.723,287.309,291.723,343.552,257.039,378.235z"/>
<path style="fill:#79B1D6;" d="M194.227,414.274c-26.402,0-51.226-10.282-69.896-28.953c-18.67-18.669-28.953-43.493-28.953-69.896
	s10.282-51.226,28.953-69.896c38.541-38.541,101.251-38.54,139.791,0c38.54,38.541,38.54,101.251,0,139.791
	C245.454,403.992,220.631,414.274,194.227,414.274z M194.227,236.664c-20.181,0-40.355,7.68-55.719,23.042
	c-14.883,14.884-23.08,34.672-23.08,55.72c0,21.048,8.197,40.836,23.08,55.719c14.883,14.883,34.67,23.08,55.719,23.08
	s40.836-8.197,55.72-23.08c30.724-30.724,30.724-80.715,0-111.439C234.587,244.347,214.404,236.664,194.227,236.664z"/>
</svg>